<?xml version="1.0" encoding="UTF-8" standalone="no"?>
<!-- Generator: Adobe Illustrator 19.0.0, SVG Export Plug-In . SVG Version: 6.00 Build 0)  -->

<svg
   version="1.1"
   x="0px"
   y="0px"
   viewBox="0 0 332.89999 349.5"
   xml:space="preserve"
   id="svg49"
   sodipodi:docname="bird.svg"
   width="332.89999"
   height="349.5"
   inkscape:version="1.4 (e7c3feb100, 2024-10-09)"
   xmlns:inkscape="http://www.inkscape.org/namespaces/inkscape"
   xmlns:sodipodi="http://sodipodi.sourceforge.net/DTD/sodipodi-0.dtd"
   xmlns="http://www.w3.org/2000/svg"
   xmlns:svg="http://www.w3.org/2000/svg"><defs
   id="defs49" /><sodipodi:namedview
   id="namedview49"
   pagecolor="#ffffff"
   bordercolor="#000000"
   borderopacity="0.25"
   inkscape:showpageshadow="2"
   inkscape:pageopacity="0.0"
   inkscape:pagecheckerboard="0"
   inkscape:deskcolor="#d1d1d1"
   inkscape:zoom="1.586938"
   inkscape:cx="6.3014434"
   inkscape:cy="246.07137"
   inkscape:window-width="1920"
   inkscape:window-height="1032"
   inkscape:window-x="0"
   inkscape:window-y="0"
   inkscape:window-maximized="1"
   inkscape:current-layer="g30" />
<style
   type="text/css"
   id="style1">
	.st0{fill:#9B8579;}
</style>
<g
   id="g30"
   transform="translate(-979.7,-99.7)">
		
		
		
		
		
		
		
		
		
		
		
		
		
		
		
		
		<path
   d="m 1033.3,364.2 169.5,40.6 -94.1,-93.1 46.8,-86.9 132.3,-61.1 24.8,-64 -179.6,103.6 -43.9,92.2 -47.8,-46.3 -61.6,20.1 39.2,24.4 z"
   id="path17"
   sodipodi:nodetypes="cccccccccccc"
   style="fill:#202c39;fill-opacity:1" />
		<polygon
   points="1170.8,308.8 1128.8,289.2 1117.8,310.3 1134,329.4 "
   id="polygon17"
   style="fill:#202c39;fill-opacity:1" />
		<polygon
   points="1132.1,283 1181.8,301.2 1233.8,254.4 1143.6,258.2 "
   id="polygon18"
   style="fill:#202c39;fill-opacity:1" />
		<polygon
   points="1238.1,243.9 1286.4,176.1 1161.7,229.1 1150.7,248.7 "
   id="polygon19"
   style="fill:#202c39;fill-opacity:1" />
		<polygon
   points="1204.2,412.4 1165.1,404.8 1187,438.7 1258.7,449.2 "
   id="polygon20"
   style="fill:#202c39;fill-opacity:1" />
		
		
		
		
		
		
		
		
		
		
		
		
	</g>

</svg>
